<?xml version="1.0" standalone="no"?>
<!DOCTYPE svg PUBLIC "-//W3C//DTD SVG 20010904//EN"
 "http://www.w3.org/TR/2001/REC-SVG-20010904/DTD/svg10.dtd">
<svg version="1.0" xmlns="http://www.w3.org/2000/svg"
 width="461.000000pt" height="461.000000pt" viewBox="0 0 461.000000 461.000000"
 preserveAspectRatio="xMidYMid meet">
<metadata>
Created by potrace 1.11, written by Peter Selinger 2001-2013
</metadata>
<g transform="translate(0.000000,461.000000) scale(0.100000,-0.100000)"
fill="#000000" stroke="none">
<path d="M2255 4259 c-27 -4 -63 -12 -80 -19 -54 -21 -1386 -794 -1424 -827
-48 -40 -96 -132 -110 -207 -15 -82 -15 -1550 0 -1631 14 -78 51 -148 102
-197 26 -24 281 -178 647 -389 l605 -349 145 -145 c80 -80 149 -145 154 -145
5 0 69 59 142 131 l133 132 628 362 c384 222 644 378 670 403 53 51 89 123
103 203 14 87 13 1532 -1 1619 -12 79 -60 171 -110 213 -50 43 -1386 814
-1441 832 -60 19 -104 23 -163 14z m675 -597 c787 -453 745 -428 769 -458 20
-26 21 -38 21 -345 0 -176 -2 -319 -4 -319 -2 0 -278 158 -613 352 -334 193
-633 363 -663 376 -78 37 -192 37 -270 0 -30 -13 -329 -183 -663 -376 -335
-194 -610 -352 -613 -352 -2 0 -4 144 -4 320 l0 320 28 29 c15 17 187 122 382
234 195 113 497 286 670 386 173 99 324 181 335 181 12 0 293 -157 625 -348z
m-205 -849 c209 -121 512 -296 674 -389 214 -123 297 -176 307 -196 11 -21 14
-90 14 -329 0 -283 -1 -301 -17 -295 -10 4 -286 162 -613 350 -327 189 -615
354 -640 367 -39 21 -59 24 -145 24 -90 0 -105 -3 -152 -27 -28 -15 -320 -183
-649 -373 -329 -190 -602 -345 -606 -345 -5 0 -8 139 -6 310 l3 310 25 24 c14
14 324 199 690 411 587 340 669 385 700 381 23 -2 168 -80 415 -223z m175
-1046 c305 -176 559 -323 563 -327 7 -6 -276 -176 -548 -330 l-40 -23 -200
132 c-230 152 -291 177 -403 168 -97 -7 -131 -22 -355 -156 -112 -67 -207
-121 -212 -121 -14 0 -557 315 -558 324 -1 4 162 102 363 218 201 116 453 261
561 323 200 115 219 124 254 116 11 -2 270 -148 575 -324z"/>
</g>
</svg>
