<?xml version="1.0" standalone="no"?>
<!DOCTYPE svg PUBLIC "-//W3C//DTD SVG 20010904//EN"
 "http://www.w3.org/TR/2001/REC-SVG-20010904/DTD/svg10.dtd">
<svg version="1.0" xmlns="http://www.w3.org/2000/svg"
 width="401.000000pt" height="401.000000pt" viewBox="0 0 401.000000 401.000000"
 preserveAspectRatio="xMidYMid meet">
<metadata>
Created by potrace 1.11, written by Peter Selinger 2001-2013
</metadata>
<g transform="translate(0.000000,401.000000) scale(0.100000,-0.100000)"
fill="#000000" stroke="none">
<path d="M1927 4000 c-55 -14 -61 -18 -797 -442 -449 -259 -689 -403 -718
-431 -24 -23 -57 -71 -75 -107 l-32 -65 -3 -839 c-3 -931 -5 -899 63 -1003 19
-28 49 -63 67 -76 18 -14 308 -184 643 -377 l610 -352 155 -154 155 -154 150
143 150 142 634 365 c424 244 648 379 678 408 25 24 58 72 76 110 l32 67 0
855 0 855 -23 56 c-13 33 -44 80 -75 112 -46 50 -127 100 -732 448 -374 216
-703 403 -732 416 -59 27 -166 38 -226 23z m351 -396 c130 -75 242 -141 249
-146 8 -6 -8 -42 -58 -125 -61 -103 -69 -122 -69 -167 0 -68 27 -112 86 -137
63 -28 117 -19 165 30 55 54 60 106 20 184 -17 33 -31 67 -31 76 0 23 20 41
43 41 25 0 726 -404 750 -431 15 -19 17 -51 17 -350 0 -181 -2 -329 -4 -329
-3 0 -283 160 -623 357 -340 196 -642 367 -672 381 -70 32 -160 39 -234 18
-35 -10 -291 -152 -697 -386 -353 -204 -646 -370 -652 -370 -17 0 -1 649 16
675 12 18 567 346 575 339 1 -1 -20 -42 -49 -90 -64 -106 -73 -153 -39 -213
24 -44 85 -81 131 -81 41 0 109 42 129 80 30 55 24 103 -22 187 -46 85 -53
137 -22 178 29 40 679 414 721 414 25 1 93 -34 270 -135z m301 -328 c17 -29
31 -63 31 -75 0 -29 -34 -61 -65 -61 -30 0 -65 32 -65 61 0 16 58 129 67 129
1 0 15 -24 32 -54z m-1335 -148 l31 -57 -21 -28 c-40 -53 -114 -34 -114 29 0
33 47 121 62 116 6 -2 24 -29 42 -60z m1180 -598 c210 -121 387 -224 394 -228
10 -7 -1 -37 -47 -132 -54 -108 -61 -130 -61 -182 0 -107 58 -178 146 -178 85
0 149 78 148 180 -1 43 -9 72 -38 129 -39 76 -41 107 -6 98 39 -10 462 -261
476 -282 12 -18 14 -79 12 -337 l-3 -315 -595 344 c-753 435 -714 415 -817
421 -59 3 -96 0 -132 -12 -27 -8 -336 -182 -687 -385 -599 -346 -640 -367
-648 -347 -4 11 -6 153 -2 315 4 227 9 298 19 315 8 11 165 107 348 213 184
106 494 284 689 397 271 157 363 206 389 206 27 0 120 -49 415 -220z m466
-410 c16 -33 30 -72 30 -88 0 -35 -33 -72 -65 -72 -27 0 -65 42 -65 74 0 21
55 146 64 146 3 0 19 -27 36 -60z m-267 -669 c318 -184 576 -335 575 -336 -2
-2 -41 -25 -88 -53 -424 -247 -506 -295 -515 -295 -5 0 -103 61 -216 135 -239
156 -286 175 -414 165 -94 -7 -127 -22 -373 -171 -171 -103 -196 -115 -215
-105 -135 71 -556 324 -550 330 10 9 440 259 460 266 9 4 3 -15 -16 -52 -56
-105 -35 -197 55 -236 84 -38 166 -2 199 86 19 49 16 73 -21 151 -30 64 -31
111 -1 155 33 49 469 301 512 297 17 -2 285 -151 608 -337z m-1203 -103 c16
-29 30 -63 30 -75 0 -29 -33 -63 -62 -63 -27 0 -68 37 -68 63 0 15 59 127 67
127 1 0 16 -24 33 -52z"/>
</g>
</svg>
