<?xml version="1.0" encoding="utf-8"?>
<!-- Generator: Adobe Illustrator 21.0.0, SVG Export Plug-In . SVG Version: 6.00 Build 0)  -->
<svg version="1.1" id="Слой_1" xmlns="http://www.w3.org/2000/svg" xmlns:xlink="http://www.w3.org/1999/xlink" x="0px" y="0px"
	 width="1920px" height="1080px" viewBox="0 0 1920 1080" enable-background="new 0 0 1920 1080" xml:space="preserve">
<g>
	<ellipse fill="#E5E5E5" cx="521" cy="956" rx="220" ry="35"/>
	<g>
		<path fill="#E5E5E5" d="M1463.218,228.512c-5.29,0-10.302,1.12-14.791,3.115c-4.162-26.537-29.132-46.936-59.318-46.936
			c-25.94,0-48.028,15.063-56.371,36.14c-5.55-2.507-11.787-3.918-18.383-3.918c-17.559,0-32.586,9.977-38.813,24.122
			c-1.551-0.589-3.237-0.923-5.009-0.923c-7.474,0-13.533,5.77-13.533,12.889h239.873
			C1492.95,238.907,1479.371,228.512,1463.218,228.512z"/>
		<path fill="#E5E5E5" d="M935.817,84.155c-1.536-22.46-20.23-40.206-43.08-40.206c-15.428,0-28.959,8.095-36.599,20.263
			c-3.574-1.466-7.485-2.279-11.587-2.279c-7.252,0-13.91,2.531-19.151,6.75c-7.853-14.715-23.352-24.734-41.196-24.734
			c-17.178,0-32.179,9.287-40.281,23.109c-2.795-1.14-5.851-1.773-9.057-1.773c-11.494,0-21.096,8.081-23.447,18.871H935.817z"/>
		<path fill="#E5E5E5" d="M186.333,940.419c0-27.691-22.054-50.14-49.26-50.14c-1.86,0-3.693,0.115-5.499,0.319
			c0.631-7.364-4.837-13.995-4.837-13.995c-4.978,6.735-5.664,12.167-4.89,16.129c-1.215,0.402-2.409,0.85-3.58,1.344
			c-5.061-5.146-13.345-5.538-13.345-5.538c0.944,4.713,2.521,8.086,4.346,10.504c-9.341,6.521-16.366,16.229-19.553,27.589
			c-2.52-0.742-5.225-1.167-8.059-1.167c-1.984,0-3.9,0.22-5.742,0.593c-2.633-2.915-5.456-4.55-5.456-4.55
			c-0.729,2.539-1.092,4.799-1.196,6.824c-6.804,3.404-11.357,9.503-11.357,16.485c0,2.863,0.783,5.572,2.153,8.017
			c-3.212,1.699-6.298,3.623-9.247,5.746c-2.936-4.472-7.402-7.055-7.402-7.055c-1.668,5.816-1.472,10.208-0.442,13.499
			c-0.987,0.918-1.959,1.853-2.903,2.82c-6.24-1.656-12.745,0.824-12.745,0.824c2.098,3.009,4.221,5.151,6.283,6.662
			c-3.627,4.727-6.786,9.873-9.396,15.364c-3.766-3.573-8.449-5.091-8.449-5.091c-0.547,7.989,1.574,12.859,4.195,15.827
			c-0.246,0.765-0.479,1.537-0.705,2.312c-8.498-1.089-15.582,6.709-15.582,6.709c5.427,2.912,9.819,3.621,13.283,3.266
			c-0.831,4.902-1.266,9.949-1.266,15.105c0,4.032,0.284,7.993,0.796,11.875h158.502c0.513-3.882,0.796-7.843,0.796-11.875
			c0-16.888-4.67-32.61-12.687-45.833C177.043,974.137,186.333,958.386,186.333,940.419z"/>
		<path fill="#E5E5E5" d="M1618.66,1020.553c-4.688-6.017-10.1-8.259-15.254-8.575c-0.165-0.981-0.336-1.983-0.517-3.014
			c10.26-7.73,8.797-18.595,8.797-18.595c-4.866-0.329-8.774,0.598-11.926,2.251c-0.282-1.375-0.572-2.774-0.876-4.214
			c-4.473-21.192-13.216-35.798-23.283-45.866c11.668-7.755,10.085-19.505,10.085-19.505c-10.929-0.74-17.067,4.808-20.505,10.866
			c-2.998-2.049-6.021-3.795-9.007-5.276c4.064-15.515-6.789-23.237-6.789-23.237c-6.303,5.868-7.743,12.236-7.069,17.924
			c-12.221-3.44-21.439-3.012-21.439-3.012c-12.406-40.23-38.418-44.295-57.636-40.885c-2.155-6.24-6.521-9.36-6.521-9.36
			c-4.592,4.274-6.591,8.813-7.086,13.162c-5.988,2.275-9.765,4.51-9.765,4.51c-4.668-5.183-9.383-9.355-14.092-12.686
			c2.311-7.394-0.281-13.326-0.281-13.326c-5.447,1.16-9.246,3.551-11.894,6.505c-2.805-1.182-5.591-2.102-8.347-2.788
			c4.716-12.029-2.295-20.534-2.295-20.534c-9.144,4.852-11.687,12.218-11.709,18.888c-1.009,0.009-2.01,0.048-3.003,0.108
			c-3.38-16.474-17.1-18.279-17.1-18.279c-3.127,9.058-0.647,15.833,3.334,20.672c-20.924,5.953-35.623,20.452-35.623,20.452
			L1336,1035.917l-31.33,4.781h301.793c0.029-3.424-0.228-7.954-0.917-13.921C1613.998,1026.013,1618.66,1020.553,1618.66,1020.553z
			"/>
		<polygon fill="#D6D6D6" points="1486.982,461.304 1509,424.338 984.47,130.795 859.651,200.648 549.809,27.25 25.279,320.793 
			47.297,357.759 549.809,76.538 859.651,249.935 984.47,180.083 		"/>
		<polygon fill="#D6D6D6" points="359.726,156.173 359.726,40.025 259.052,40.025 259.052,216.933 		"/>
		<rect x="170.252" y="312.001" fill="#E5E5E5" width="97.495" height="29.999"/>
		<rect x="186.252" y="362.001" fill="#E5E5E5" width="97.495" height="29.999"/>
		<rect x="175.095" y="869.572" fill="#E5E5E5" width="97.495" height="29.999"/>
		<rect x="1065.085" y="319.601" fill="#E5E5E5" width="97.495" height="29.999"/>
		<rect x="1021.085" y="361.601" fill="#E5E5E5" width="97.495" height="29.999"/>
		<rect x="1250.088" y="845.1" fill="#E5E5E5" width="97.495" height="29.999"/>
		<rect x="1286.088" y="956.433" fill="#E5E5E5" width="48.748" height="29.999"/>
		<rect x="899.442" y="665.834" fill="#E5E5E5" width="48.748" height="29.999"/>
		<rect x="178.088" y="918.433" fill="#E5E5E5" width="48.748" height="29.999"/>
		<rect x="906.093" y="946.57" fill="#E5E5E5" width="97.495" height="29.999"/>
		<rect x="864.093" y="902.57" fill="#E5E5E5" width="97.495" height="29.999"/>
		<rect x="858.093" y="617.542" fill="#E5E5E5" width="97.495" height="29.999"/>
		<polygon fill="#D6D6D6" points="1324.151,339.579 1324.151,1013.109 921.854,1013.109 597.699,1013.109 197.254,1013.109 
			196.587,268.502 163.038,291.848 163.038,1013.109 163.038,1040.698 235.026,1040.698 597.699,1040.698 921.854,1040.698 
			1356.515,1040.698 1356.515,357.607 		"/>
		<path fill="#D8D8D8" d="M962.18,524.575c0,0,29.191-17.964,66.803-3.368c37.612,14.596,61.751-8.421,96.556,6.736
			c34.805,15.157,43.787,9.543,66.803,0c23.016-9.543,52.208,0,60.628,3.93c8.421,3.93,1.123-48.839,1.123-48.839
			s1.123-35.928,1.123-37.612s-90.942-5.614-92.626-5.614c-1.684,0-190.867-0.561-190.867-0.561L962.18,524.575z"/>
		<path fill="#E5E5E5" d="M933.092,423.272V793h348.701V423.272H933.092z M1246.018,755.068H968.867V461.205h277.151V755.068z"/>
		<rect x="1132.582" y="435.985" fill="#E5E5E5" width="27.845" height="328.387"/>
		<g>
			<path fill="#C6C6C6" d="M1033.626,698.878c0,0-97.39-86.362-70.598-153.431C963.028,545.447,1042.843,588.884,1033.626,698.878z"
				/>
			<path fill="#C6C6C6" d="M1025.085,687.899c0,0,7.841-93.381,69.858-111.202C1094.943,576.697,1104.21,643.703,1025.085,687.899z"
				/>
			<path fill="#E5E5E5" d="M1029.924,685.091c73.888-44.167,65.019-108.395,65.019-108.395S1059.416,609.071,1029.924,685.091z"/>
			<path fill="#E5E5E5" d="M963.028,545.447c0,0,63.533,102.744,66.896,139.644l4.304,3.795
				C1037.991,586.246,963.028,545.447,963.028,545.447z"/>
			<path fill="#C6C6C6" d="M1060.014,757.044c-16.916,3.724-35,3.64-54.175,0l-11.405-82.689h78.412L1060.014,757.044z"/>
			<path fill="#BCBCBC" d="M1058.627,674.355l-11.524,74.268c-13.343,2.937-27.416,3.495-42.175,1.818l0.911,6.603
				c19.175,3.64,37.26,3.724,54.176,0l12.831-82.689H1058.627z"/>
		</g>
	</g>
	<g>
		<circle fill="#2B2D31" cx="370.177" cy="259.33" r="51.681"/>
		<polygon fill="#FCC000" points="343.957,262.321 343.957,298.508 363.459,298.508 363.459,277.042 377.761,277.042 
			377.761,298.508 395.963,298.508 395.963,263.404 376.135,250.728 362.701,250.728 		"/>
		<polygon fill="#F49C00" points="403.546,263.455 369.635,243.876 335.723,263.455 339.136,269.367 369.635,251.758 
			400.134,269.367 		"/>
		<path fill="#F49C00" d="M380.25,241.675c-0.421,0-0.849-0.107-1.24-0.333c-9.306-5.357-18.585-0.218-18.975,0.004
			c-1.192,0.678-2.713,0.263-3.394-0.929s-0.273-2.707,0.916-3.391c0.489-0.282,12.106-6.814,23.938,0
			c1.192,0.686,1.602,2.208,0.916,3.4C381.95,241.228,381.112,241.675,380.25,241.675z"/>
		<path fill="#F49C00" d="M386.102,232.91c-0.338,0-0.682-0.069-1.011-0.216c-16.32-7.265-28.872-0.404-29.398-0.108
			c-1.197,0.671-2.714,0.252-3.39-0.942c-0.676-1.194-0.262-2.708,0.93-3.388c0.611-0.348,15.178-8.438,33.883-0.112
			c1.256,0.559,1.821,2.031,1.262,3.288C387.966,232.359,387.056,232.91,386.102,232.91z"/>
		<path fill="#F49C00" d="M388.919,224.216c-0.354,0-0.714-0.076-1.057-0.237c-19.751-9.27-36.565-0.173-36.733-0.08
			c-1.201,0.666-2.716,0.236-3.385-0.962c-0.669-1.199-0.244-2.712,0.954-3.384c0.771-0.433,19.139-10.475,41.281-0.082
			c1.245,0.584,1.78,2.067,1.196,3.312C390.75,223.686,389.854,224.216,388.919,224.216z"/>
	</g>
	<g>
		<circle fill="#2B2D31" cx="770.047" cy="493.024" r="48.719"/>
		<g>
			<path fill="#EE9600" d="M777.765,511.851c0,0,0.949-1.377,0.788-2.747c-3.697,3.066-14.14,2.754-17.8-0.376
				c-0.148,0.724-0.338,2.493,0.917,3.791c0,0-1.058,1.615-0.111,2.506c0,0-0.891,1.17,0,2.228c0,0-0.891,1.504,0.223,2.45
				c0,0-0.422,0.571-0.126,1.504c0,0,0,0,0,0c0,0.001,0.001,0.003,0.001,0.004c0.003,0.01,0.007,0.02,0.01,0.03
				c0.018,0.053,0.038,0.108,0.061,0.164c0.004,0.01,0.008,0.02,0.012,0.031c0.025,0.06,0.054,0.122,0.086,0.184
				c0.007,0.014,0.014,0.028,0.022,0.043c0.033,0.062,0.068,0.126,0.108,0.19c0.009,0.015,0.018,0.029,0.027,0.044
				c0.042,0.066,0.086,0.134,0.135,0.203c0.008,0.012,0.018,0.024,0.026,0.035c0.051,0.07,0.105,0.141,0.165,0.213
				c0.004,0.005,0.008,0.01,0.012,0.015c0.062,0.075,0.13,0.151,0.201,0.228c0.012,0.013,0.024,0.026,0.036,0.039
				c0.071,0.075,0.146,0.151,0.227,0.227c0.016,0.015,0.032,0.03,0.048,0.046c0.082,0.077,0.169,0.156,0.262,0.235
				c0.016,0.014,0.032,0.027,0.048,0.041c0.098,0.083,0.201,0.167,0.311,0.251c0.006,0.005,0.014,0.01,0.02,0.015
				c0.109,0.084,0.224,0.168,0.345,0.253c0.016,0.011,0.03,0.022,0.046,0.033c0.122,0.085,0.25,0.171,0.384,0.257
				c0.024,0.016,0.049,0.031,0.073,0.047c0.135,0.086,0.275,0.172,0.423,0.259c0.026,0.016,0.053,0.031,0.08,0.047
				c0.153,0.089,0.312,0.18,0.48,0.27c0.018,0.01,0.036,0.019,0.054,0.029c0.155,0.083,0.316,0.168,0.483,0.252l0,0c0,0,0,0,0,0
				c0.016,0.008,0.031,0.016,0.047,0.024c0.013,0.007,0.026,0.013,0.039,0.02c0.07,0.035,0.144,0.071,0.216,0.106
				c0.013,0.006,0.026,0.013,0.039,0.019c0.094,0.046,0.191,0.092,0.289,0.138c0.018,0.008,0.036,0.017,0.054,0.025
				c0.029,0.013,0.057,0.027,0.086,0.04c0.07,0.032,0.141,0.065,0.213,0.097c0.035,0.016,0.071,0.032,0.107,0.048
				c0.087,0.039,0.176,0.078,0.266,0.117c0.02,0.009,0.04,0.018,0.06,0.026c0.031,0.013,0.063,0.027,0.094,0.04
				c0.079,0.034,0.158,0.068,0.24,0.102c0.063,0.026,0.128,0.053,0.192,0.079c0.075,0.031,0.149,0.062,0.226,0.093
				c0.015,0.006,0.029,0.012,0.044,0.018c0.015,0.006,0.032,0.013,0.047,0.019c0.054,0.022,0.109,0.043,0.164,0.065
				c0.061,0.024,0.121,0.048,0.183,0.073c0.151,0.059,0.305,0.118,0.462,0.177h0.947c0,0,0.008-0.003,0.021-0.008
				c0.005-0.002,0.009-0.003,0.016-0.006c0.006-0.002,0.011-0.004,0.019-0.007c0.01-0.004,0.021-0.008,0.034-0.013
				c0.01-0.004,0.02-0.008,0.031-0.012c0.003-0.001,0.006-0.002,0.008-0.003c0.014-0.006,0.027-0.011,0.043-0.017
				c0.011-0.004,0.024-0.009,0.036-0.014c0.016-0.006,0.031-0.012,0.048-0.019c0.009-0.004,0.017-0.007,0.027-0.01
				c0.025-0.01,0.053-0.022,0.081-0.033c0.019-0.008,0.037-0.015,0.058-0.023c0.016-0.007,0.035-0.014,0.052-0.021
				c0.03-0.012,0.06-0.025,0.092-0.038c0.013-0.005,0.024-0.01,0.038-0.016c0.019-0.008,0.04-0.017,0.059-0.025
				c0.025-0.011,0.052-0.022,0.078-0.033c0.029-0.012,0.056-0.024,0.086-0.037c0.039-0.017,0.08-0.034,0.121-0.052
				c0.031-0.013,0.06-0.026,0.092-0.04c0.014-0.006,0.029-0.013,0.043-0.019c0.041-0.018,0.082-0.036,0.125-0.055
				c0.013-0.006,0.025-0.011,0.038-0.017c0.034-0.015,0.07-0.031,0.105-0.047c0.004-0.002,0.008-0.004,0.012-0.005
				c0.048-0.022,0.096-0.043,0.146-0.066c0.03-0.014,0.06-0.028,0.091-0.042c0.037-0.017,0.075-0.035,0.113-0.052
				c0.051-0.024,0.102-0.048,0.155-0.073c0.049-0.023,0.1-0.048,0.15-0.072c0.032-0.016,0.063-0.03,0.096-0.046
				c0.052-0.025,0.106-0.052,0.159-0.079c0.036-0.018,0.072-0.035,0.108-0.053c0,0,0,0,0,0c0.023-0.012,0.047-0.023,0.07-0.035
				c0.064-0.032,0.129-0.065,0.194-0.099c0.051-0.026,0.103-0.053,0.155-0.08c0.067-0.035,0.134-0.07,0.202-0.106
				c0.051-0.027,0.102-0.055,0.153-0.083c0.071-0.038,0.141-0.076,0.212-0.116c0.04-0.022,0.08-0.045,0.121-0.068
				c0.142-0.08,0.284-0.162,0.427-0.247c0.049-0.029,0.098-0.058,0.147-0.087c0.07-0.043,0.141-0.086,0.211-0.13
				c0.052-0.032,0.103-0.064,0.155-0.097c0.07-0.044,0.139-0.089,0.208-0.134c0.051-0.034,0.102-0.068,0.153-0.102
				c0.069-0.046,0.138-0.093,0.206-0.14c0.049-0.034,0.096-0.068,0.144-0.103c0.145-0.103,0.286-0.208,0.425-0.315
				c0.028-0.022,0.058-0.043,0.086-0.065c0.063-0.049,0.123-0.1,0.184-0.15c0.047-0.039,0.095-0.078,0.141-0.117
				c0.059-0.05,0.116-0.101,0.173-0.152c0.046-0.041,0.091-0.082,0.136-0.123c0.055-0.051,0.109-0.103,0.162-0.155
				c0.043-0.043,0.085-0.085,0.127-0.128c0.051-0.052,0.102-0.104,0.15-0.157c0.042-0.046,0.081-0.093,0.121-0.139
				c0.078-0.09,0.151-0.18,0.221-0.272c0.039-0.051,0.078-0.101,0.115-0.152c0.036-0.052,0.069-0.104,0.103-0.156
				c0.032-0.049,0.064-0.099,0.093-0.149c0.031-0.053,0.06-0.105,0.088-0.159c0.027-0.051,0.052-0.102,0.076-0.154
				c0.025-0.053,0.049-0.105,0.07-0.159c0.005-0.013,0.012-0.026,0.018-0.04c-0.001,0.001-0.003,0.002-0.004,0.003
				c0.255-0.657,0.263-1.344-0.105-2.041c0,0,1.448-1.225-0.111-2.451c0,0,1.225-1.281,0.39-2.116
				C777.653,514.19,778.656,512.854,777.765,511.851z"/>
			<path fill="#747475" d="M778.321,509.286c-0.008-1.29-3.969-2.335-8.855-2.335c-4.235,0-7.774,0.786-8.647,1.835
				C764.464,511.799,774.462,512.138,778.321,509.286z"/>
			<path fill="#FCC000" d="M788.207,472.012c-2.773-6.492-8.949-12.163-18.064-12.183c-0.032,0-0.064,0-0.096-0.001
				c-0.032,0-0.064,0-0.096,0.001c-9.115,0.02-15.291,5.691-18.064,12.183c-3.267,7.648-0.149,17.525,3.936,23.54
				s2.821,5.519,3.676,11.12c0.872,5.718,19.298,6.33,20.328,0.39c0.968-5.582,0.362-5.495,4.446-11.51
				C788.356,489.537,791.474,479.661,788.207,472.012z"/>
			<path fill="#FFFFFF" d="M766.443,510.938c-0.35-0.05-0.69-0.12-1.02-0.19l-5.55-30.06c-0.04-0.26,0.13-0.51,0.4-0.56
				c0.26-0.05,0.51,0.12,0.56,0.39L766.443,510.938z"/>
			<path fill="#FFFFFF" d="M773.473,511.008l5.02-25.56c0.05-0.26-0.13-0.52-0.39-0.57c-0.27-0.05-0.52,0.12-0.57,0.38l-5.08,25.88
				h-0.01L773.473,511.008z"/>
			<path fill="#FFFFFF" d="M762.55,494.923c-1.244,0-2.398-0.407-3.408-1.378c-3.554-3.416-4.685-7.343-3.027-10.504
				c1.31-2.497,4.063-3.792,6.844-3.228c2.052,0.417,4.057,2.289,5.827,3.941c1.072,1.001,2.084,1.946,2.941,2.417h0
				c0.643,0.354,1.5,0.774,2.438,1.161c3.287-2.644,5.667-4.52,7.13-3.836c0.681,0.321,1.021,1.119,1.038,2.441
				c0.019,1.455-0.454,2.481-1.404,3.051c-1.666,1.002-4.431,0.298-6.609-0.553C770.569,491.453,766.182,494.923,762.55,494.923z
				 M761.667,480.639c-1.961,0-3.769,1.061-4.705,2.846c-1.45,2.763-0.387,6.266,2.842,9.371c3.267,3.139,8.846-1.097,13.51-4.839
				c-0.961-0.424-1.711-0.822-2.048-1.007c-0.961-0.529-2.016-1.513-3.133-2.556c-1.677-1.566-3.578-3.34-5.365-3.704
				C762.399,480.676,762.03,480.639,761.667,480.639z M775.197,487.73c1.979,0.707,4.091,1.128,5.24,0.439
				c0.647-0.388,0.954-1.114,0.94-2.219c-0.011-0.881-0.185-1.445-0.489-1.588C780.019,483.954,777.631,485.779,775.197,487.73z"/>
		</g>
	</g>
	<g>
		<circle fill="#2B2D31" cx="269.719" cy="493.024" r="48.719"/>
		<path fill="#F49C00" d="M291.323,488.769h-40.276c-1.522,0-2.757-1.235-2.757-2.757s1.235-2.757,2.757-2.757h37.519v-10.898
			c0-9.673-7.797-17.542-17.38-17.542c-9.584,0-17.381,7.87-17.381,17.542c0,1.522-1.235,2.757-2.757,2.757
			s-2.757-1.235-2.757-2.757c0-12.713,10.271-23.057,22.896-23.057c12.624,0,22.895,10.344,22.895,23.057v13.656
			C294.08,487.534,292.845,488.769,291.323,488.769z"/>
		<path fill="#FCC000" d="M248.279,486.011v38.016h45.812v-38.016H248.279z M274.725,505.203v8.49h-6.664v-8.49
			c-2.23-1.056-3.748-3.138-3.748-5.536c0-3.465,3.17-6.274,7.08-6.274c3.91,0,7.08,2.809,7.08,6.274
			C278.473,502.065,276.955,504.147,274.725,505.203z"/>
	</g>
	<g>
		<circle fill="#2B2D31" cx="750.615" cy="758.766" r="48.719"/>
		<g>
			<path fill="#F49C00" d="M762.999,792.546c-3.592,0-7.219-0.833-10.646-2.517c-11.272-5.537-10.107-15.681-7.916-20.271
				c0.656-1.374,2.301-1.956,3.676-1.301c1.375,0.656,1.957,2.302,1.301,3.676c-0.391,0.847-3.621,8.529,5.371,12.946
				c6.113,3.003,13.042,2.498,18.533-1.353c7.697-5.395,11.304-15.897,9.897-28.814c-1.239-11.376-8.013-20.62-18.583-25.362
				c-11.066-4.964-23.708-3.941-32.992,2.673c-18.352,13.072-11.229,35.986-11.155,36.216c0.467,1.449-0.329,3.003-1.778,3.47
				c-1.449,0.47-3.002-0.329-3.47-1.778c-0.086-0.269-8.396-27.012,13.204-42.398c10.871-7.744,25.604-8.974,38.448-3.213
				c12.403,5.564,20.352,16.425,21.808,29.796c1.631,14.978-2.82,27.344-12.214,33.928
				C772.409,791.099,767.734,792.546,762.999,792.546z"/>
			<path fill="#F49C00" d="M741.388,756.817c-1.522,0-2.757-1.234-2.757-2.757v-10.796c0-1.522,1.235-2.757,2.757-2.757
				s2.757,1.234,2.757,2.757v10.796C744.146,755.583,742.911,756.817,741.388,756.817z"/>
			<path fill="#F49C00" d="M751.63,756.817c-1.522,0-2.757-1.234-2.757-2.757v-10.796c0-1.522,1.235-2.757,2.757-2.757
				s2.757,1.234,2.757,2.757v10.796C754.388,755.583,753.153,756.817,751.63,756.817z"/>
			<path fill="#FCC000" d="M751.047,774.72h-8.094c-4.602,0-8.332-3.73-8.332-8.332v-12.617h24.757v12.617
				C759.379,770.989,755.648,774.72,751.047,774.72z"/>
		</g>
	</g>
	<g>
		<circle fill="#2B2D31" cx="305.544" cy="758.766" r="48.719"/>
		<polyline fill="#FCC000" points="272.174,747.14 272.174,735.455 338.136,735.455 338.136,780.49 272.174,780.49 272.174,771.638 
					"/>
		<circle fill="#F49C00" cx="305.155" cy="757.972" r="15.75"/>
		<polygon fill="#2B2D31" points="301.115,751.385 301.115,762.734 311.911,757.198 		"/>
	</g>
	<g>
		<g id="g80_5_" transform="translate(1198.8223,576.7959)" inkscape:export-xdpi="96" inkscape:export-ydpi="96">
			<path fill="#FFFFFF" d="M-481.562-334.469c-0.117-3.114-2.004-6.089-4.551-7.56l-27.548-15.899l-4.819-2.78l-1.254-0.724
				c-2.819-1.632-6.323-1.632-9.13-0.006l-0.919,0.529l-4.819,2.78l-27.893,16.105c-2.707,1.571-4.429,4.434-4.551,7.548v0.006
				v39.519v0.005c0.095,2.413,1.153,4.685,2.886,6.312c0.34,0.328,0.708,0.624,1.108,0.891c0.173,0.123,0.351,0.234,0.541,0.345
				l0.791,0.457h0.006l5.242,3.025l24.495,14.144l7.398,7.392l7.102-6.902l25.141-14.517l5.359-3.092l0.083-0.05l0.797-0.457
				c0.602-0.351,1.158-0.769,1.66-1.242c1.727-1.632,2.785-3.899,2.874-6.306l0.017-32.266L-481.562-334.469z"/>
		</g>
		<g id="g34_2_">
			<g id="g40_2_" transform="translate(910.2832,723.624)">
			</g>
			<g id="g44_2_" transform="translate(1198.4043,575.4751)">
			</g>
			<g id="g48_2_" transform="translate(831.667,603.0063)">
			</g>
			<g id="g56_2_" transform="translate(1198.4121,575.4751)">
			</g>
			<g id="g64_2_" transform="translate(1198.8301,576.7627)">
			</g>
			<g id="g68_2_" transform="translate(999.7861,693.4888)" inkscape:export-xdpi="96" inkscape:export-ydpi="96">
				<path id="path70_2_" inkscape:connector-curvature="0" fill="#F49C00" d="M-311.989-465.378l-3.142,5.259
					c-0.106,0.184-0.206,0.379-0.279,0.574l-9.855-5.654l-16.523,9.359c-0.083-0.357-0.223-0.702-0.423-1.03l-1.248-2.084
					c-0.875-1.471-0.385-3.365,1.097-4.222l15.877-9.164c0.752-0.435,1.682-0.435,2.44,0.006L-311.989-465.378z"/>
			</g>
			<g id="g72_2_" transform="translate(1021.7012,606.667)" inkscape:export-xdpi="96" inkscape:export-ydpi="96">
				<path id="path74_2_" inkscape:connector-curvature="0" fill="#F49C00" d="M-326.601-349.622l-2.123,4.228l-18.456-10.585
					l-36.07,20.428v-3.716c0-0.875,0.474-1.688,1.225-2.123l33.625-19.414c0.752-0.435,1.682-0.435,2.44,0.006L-326.601-349.622z"/>
			</g>
			<g id="g76_2_" transform="translate(1049.4658,518.2402)" inkscape:export-xdpi="96" inkscape:export-ydpi="96">
				<path id="path78_2_" inkscape:connector-curvature="0" fill="#F49C00" d="M-345.113-231.726l-4.574,2.635l-18.155-10.411
					c-4.407-2.529-9.816-2.54-14.228-0.039l-5.164,2.924c0-0.005-0.006-0.005-0.006-0.011l-0.468-0.769
					c-1.025-1.71-0.44-3.933,1.281-4.924l10.261-5.922c0.747-0.434,1.688-0.434,2.44,0L-345.113-231.726z"/>
			</g>
			<g id="g80_4_" transform="translate(1198.8223,576.7959)" inkscape:export-xdpi="96" inkscape:export-ydpi="96">
				
					<path id="path82_2_" inkscape:connector-curvature="0" sodipodi:nodetypes="ccccccccccccccccccccsccccccccccccccccccccccccscccccsccccsccccsscccccccsccccccsscccccsccccccccccccccccccccccccccsccccccsccccccccccccccccccccccccscccccccccccccccccccccccccccccccccccccccccccccc" fill="#2B2D31" d="
					M-488.23-318.531l-31.503-18.183c-2.819-1.632-6.323-1.632-9.13-0.006l-31.508,18.189v-15.581c0-0.875,0.473-1.688,1.225-2.123
					l13.715-7.916l-2.373,3.972c-0.713,1.192-0.729,2.629-0.039,3.844c0.173,0.306,0.373,0.579,0.613,0.819
					c0.791,0.797,1.9,1.209,3.092,1.097c1.092-0.106,2.112-0.702,2.741-1.604c0.663-0.953,0.847-2.078,0.574-3.125
					c-0.083-0.357-0.223-0.702-0.423-1.03l-1.248-2.084c-0.875-1.471-0.385-3.365,1.097-4.222l15.877-9.164
					c0.752-0.435,1.682-0.435,2.44,0.006l12.055,6.958l-3.142,5.259c-0.106,0.184-0.206,0.379-0.279,0.574
					c-0.418,1.064-0.346,2.245,0.24,3.27c0.741,1.32,2.161,2.061,3.704,1.916c1.02-0.1,1.972-0.624,2.602-1.432
					c0.05-0.056,0.1-0.112,0.139-0.173c0.88-1.276,0.924-2.858,0.15-4.156l-0.763-1.27c-0.596-1.008,0.535-2.15,1.549-1.565
					l17.358,10.022c0.758,0.44,1.237,1.253,1.237,2.128L-488.23-318.531z M-503.148-317.032l1.392,2.763
					c0.19,0.379,0.262,0.802,0.223,1.22c-0.033,0.245-0.095,0.49-0.206,0.713c-0.284,0.613-0.819,0.975-1.409,0.975
					c-0.591,0-1.114-0.362-1.404-0.975c-0.284-0.607-0.284-1.331,0.022-1.933l0.189-0.39L-503.148-317.032z M-488.23-295.301
					c0,0.279-0.056,0.557-0.145,0.814l-31.363-18.105c-2.819-1.621-6.306-1.621-9.125,0l-31.363,18.105
					c-0.095-0.257-0.145-0.535-0.145-0.814v-14.094c0-0.875,0.473-1.688,1.225-2.123l33.625-19.414
					c0.752-0.435,1.682-0.435,2.44,0.006l19.359,11.175l-2.123,4.228l-0.58,1.153c-0.713,1.421-0.73,3.125-0.044,4.574
					c0.691,1.437,1.928,2.295,3.32,2.295c1.392,0,2.635-0.858,3.326-2.295c0.295-0.63,0.462-1.309,0.496-1.989
					c0.045-0.886-0.139-1.783-0.535-2.585l-1.354-2.69c-0.267-0.524,0.312-1.064,0.819-0.775l10.93,6.312
					c0.758,0.44,1.237,1.253,1.237,2.128V-295.301z M-541.264-295.1l1.382-2.323l1.393,2.323c0.162,0.273,0.24,0.574,0.229,0.874
					c-0.006,0.262-0.073,0.518-0.212,0.752c-0.284,0.513-0.819,0.819-1.409,0.819c-0.284,0-0.557-0.073-0.785-0.206
					c-0.257-0.139-0.468-0.351-0.619-0.613C-541.57-293.986-541.57-294.593-541.264-295.1 M-499.042-287.647l-10.673,6.167
					l-9.153-6.028c-3.326-2.189-7.61-2.284-11.025-0.24l-9.743,5.827l-10.078-5.816l-4.418-2.551l12.284-7.086l-1.237,2.067
					c-0.68,1.148-0.814,2.585-0.212,3.783c0.022,0.039,0.039,0.078,0.061,0.117c0.735,1.365,2.173,2.128,3.749,1.983
					c1.086-0.106,2.1-0.702,2.73-1.605c0.891-1.27,0.93-2.847,0.167-4.144c0-0.006-0.005-0.006-0.005-0.011l-0.468-0.769
					c-1.025-1.71-0.44-3.933,1.281-4.925l10.262-5.922c0.746-0.435,1.688-0.435,2.44,0l28.612,16.518L-499.042-287.647z
					 M-543.135-340.095c0.307,0.507,0.312,1.114,0.017,1.627c-0.29,0.512-0.819,0.819-1.409,0.819c-0.591,0-1.114-0.307-1.398-0.819
					c-0.295-0.513-0.29-1.12,0.011-1.627l1.387-2.323L-543.135-340.095z M-509.499-343.343c0.307,0.507,0.312,1.114,0.017,1.627
					c-0.29,0.513-0.819,0.819-1.41,0.819c-0.061,0-0.111-0.006-0.173-0.011c-0.457-0.045-0.863-0.279-1.125-0.652
					c-0.034-0.05-0.067-0.1-0.1-0.156c-0.295-0.512-0.284-1.12,0.011-1.627l1.387-2.323L-509.499-343.343z M-481.562-294.944
					L-481.562-294.944l0.017-32.266l-0.017-7.259l0,0c-0.117-3.114-2.004-6.089-4.551-7.56l-27.548-15.899l0,0l0,0l0,0l0,0
					l-4.819-2.78l0,0l-1.254-0.724c-2.819-1.632-6.323-1.632-9.13-0.006l-0.919,0.529l0,0l0,0l-4.819,2.78l0,0l0,0l0,0
					l-27.893,16.105c-2.707,1.571-4.429,4.434-4.551,7.548v0.006l0,0l0,0v39.524v-0.005v0.005c0.095,2.413,1.153,4.685,2.886,6.312
					c0.34,0.328,0.708,0.624,1.108,0.891c0.173,0.123,0.351,0.234,0.541,0.345l0.791,0.457h0.006l5.242,3.025l24.495,14.144
					l7.398,7.392l7.102-6.902l25.141-14.517l5.359-3.092l0.083-0.05l0.797-0.457c0.602-0.351,1.158-0.769,1.66-1.242
					C-482.709-290.27-481.651-292.538-481.562-294.944L-481.562-294.944L-481.562-294.944L-481.562-294.944L-481.562-294.944
					L-481.562-294.944"/>
			</g>
			<g id="g84_2_" transform="translate(903.5869,533.3184)" inkscape:export-xdpi="96" inkscape:export-ydpi="96">
				<path id="path86_2_" inkscape:connector-curvature="0" fill="#F49C00" d="M-247.85-251.829c-0.68,1.148-0.813,2.585-0.212,3.783
					c0.022,0.039,0.039,0.078,0.061,0.117l-6.479,3.671l-4.417-2.551l12.283-7.086L-247.85-251.829z"/>
			</g>
			<g id="g88_2_" transform="translate(1068.1875,575.5923)" inkscape:export-xdpi="96" inkscape:export-ydpi="96">
				<path id="path90_2_" inkscape:connector-curvature="0" fill="#F49C00" d="M-357.595-308.191v3.972l-11.097-6.362
					c0.045-0.886-0.139-1.783-0.535-2.585l-1.354-2.691c-0.268-0.524,0.312-1.064,0.819-0.774l10.93,6.312
					C-358.074-309.879-357.595-309.066-357.595-308.191"/>
			</g>
			<g id="g92_2_" transform="translate(1068.1875,649.7603)" inkscape:export-xdpi="96" inkscape:export-ydpi="96">
				<path id="path94_2_" inkscape:connector-curvature="0" fill="#F49C00" d="M-357.595-407.077v6.295l-19.67-11.281
					c0.05-0.056,0.1-0.111,0.139-0.173c0.88-1.276,0.924-2.858,0.15-4.156l-0.763-1.27c-0.596-1.008,0.535-2.15,1.549-1.566
					l17.358,10.022C-358.074-408.765-357.595-407.952-357.595-407.077"/>
			</g>
			<g id="g96_2_" transform="translate(889.3115,656.4302)" inkscape:export-xdpi="96" inkscape:export-ydpi="96">
				<path id="path98_2_" inkscape:connector-curvature="0" fill="#F49C00" d="M-238.332-415.969c0.173,0.306,0.373,0.58,0.613,0.819
					l-13.142,7.442v-6.039c0-0.875,0.474-1.688,1.225-2.123l13.715-7.916l-2.373,3.972
					C-239.006-418.621-239.023-417.184-238.332-415.969"/>
			</g>
			<g id="g100_2_" transform="translate(1068.1875,630.8716)" inkscape:export-xdpi="96" inkscape:export-ydpi="96">
				<path id="path102_2_" inkscape:connector-curvature="0" fill="#FCC000" d="M-357.595-381.893v9.286l-31.503-18.183
					c-2.819-1.632-6.323-1.632-9.13-0.006l-31.508,18.189v-9.543l13.142-7.442c0.791,0.797,1.9,1.209,3.092,1.097
					c1.092-0.106,2.112-0.702,2.741-1.605c0.663-0.952,0.847-2.078,0.574-3.125l16.523-9.359l9.855,5.654
					c-0.418,1.064-0.346,2.245,0.24,3.27c0.741,1.32,2.161,2.061,3.704,1.916c1.019-0.1,1.972-0.624,2.602-1.432L-357.595-381.893z"
					/>
			</g>
			<g id="g104_2_" transform="translate(1068.1875,563.6738)" inkscape:export-xdpi="96" inkscape:export-ydpi="96">
				<path id="path106_2_" inkscape:connector-curvature="0" fill="#FCC000" d="M-357.595-292.301v10.122
					c0,0.279-0.056,0.557-0.145,0.814l-31.363-18.105c-2.819-1.621-6.306-1.621-9.125,0l-31.363,18.105
					c-0.095-0.256-0.145-0.535-0.145-0.814v-10.378l36.071-20.428l18.456,10.584l-0.58,1.153c-0.713,1.421-0.73,3.125-0.045,4.574
					c0.691,1.437,1.928,2.295,3.32,2.295c1.393,0,2.635-0.858,3.326-2.295c0.295-0.63,0.462-1.309,0.496-1.989L-357.595-292.301z"/>
			</g>
			<g id="g108_2_" transform="translate(1035.7422,510.334)" inkscape:export-xdpi="96" inkscape:export-ydpi="96">
				<path id="path110_2_" inkscape:connector-curvature="0" fill="#FCC000" d="M-335.962-221.185l-10.673,6.167l-9.153-6.028
					c-3.326-2.189-7.61-2.284-11.025-0.24l-9.743,5.827l-10.078-5.816l6.479-3.671c0.736,1.365,2.173,2.128,3.749,1.983
					c1.086-0.106,2.1-0.702,2.73-1.604c0.891-1.27,0.93-2.847,0.167-4.145l5.164-2.924c4.412-2.501,9.821-2.49,14.228,0.039
					L-335.962-221.185z"/>
			</g>
		</g>
	</g>
	<g>
		<path fill="#F49C00" d="M444.5,643c0,0,95.5-5,107-7s-5.5-50.5-35-51S443.5,635,444.5,643z"/>
		<path fill="#161819" d="M623.63,897.278c0,0,9.562,11.825,4.037,16.388c-5.525,4.563-10.473,12.418-6.826,21.436
			s11.721,5.189,17.372,17.772c5.652,12.583,8.618,18.779,17.309,21.918c8.691,3.139,32.84,3.133,36.478-1.793
			s-10.214-13.946-16.664-19.834c-6.45-5.888-21.631-56.185-21.631-56.185L623.63,897.278z"/>
		<path d="M481.982,332.189c0,0-9.231-17.867,16.378-27.098c25.609-9.231,40.795,13.995,36.924,32.457
			c-3.871,18.462-10.422,18.462,7.147,32.457s42.88,37.52,25.41,58.562c-17.469,21.043-25.41,21.837-19.852,43.674
			c5.558,21.837-9.926,37.321-35.336,35.733c-25.41-1.588-58.761-30.572-58.761-43.674c0-13.102,14.293-109.581,14.293-110.772
			C468.185,352.339,481.982,332.189,481.982,332.189z"/>
		<path d="M510.866,364.945c0,19.488-19.951,50.324-41.093,45.56c-17.247-3.887-35.137-20.712-35.137-40.2
			s29.667-31.564,47.346-31.564S510.866,345.456,510.866,364.945z"/>
		<path fill="#F49C00" d="M524.5,442c10.908-2.182,18.135,23.108,18.929,32.637c0.794,9.529,14.69,55.585,14.69,69.084
			c0,13.499,3.375,22.532-2.978,23.326c-6.353,0.794-26.403-10.224-29.976-45.56S518.544,443.191,524.5,442z"/>
		<path fill="#F49C00" d="M402.476,440.311c7.2-1.2,16.681,56.559,20.255,66.882c3.573,10.323,6.346,61.161-5.167,65.529
			c-11.514,4.367-21.831-27.413-22.625-40.118C394.145,519.898,383.419,443.488,402.476,440.311z"/>
		<path fill="#D89261" d="M485.859,400.391c0,0-6.353,21.837-1.191,28.189c5.161,6.353,42.758,11.596,46.332,21.919
			s-2.658,51.929-3.055,63.443c-0.397,11.514,2.779,35.733,15.087,46.85c12.308,11.117,24.616,34.542,26.998,45.659
			c2.382,11.117-35.733,41.292-35.733,41.292s-68.29,3.97-78.216-10.72c-9.926-14.69-11.514-67.893-18.264-82.98
			c-6.75-15.087-41.291-95.685-40.497-106.008c0.794-10.323,32.954-16.278,44.071-19.852c11.117-3.573,9.529-30.174,7.544-42.483
			C446.95,373.393,485.859,400.391,485.859,400.391z"/>
		<path fill="#FFB27D" d="M436.026,381.124c-1.141,31.515,7.878,40.771,29.579,34.145c19.504-5.956,39.63-24.375,40.795-48.686
			c1.042-21.738-10.968-34.74-36.18-33.946c-12.735,0.401-25.311,10.869-30.373,30.522c-0.215,0.836,0.51,5.973,0.447,6.849
			C440.164,371.783,436.205,376.178,436.026,381.124z"/>
		<path fill="#C6C6C6" d="M410.721,681.689h132.212c4.769,0,8.635-3.866,8.635-8.635l0,0c0-4.769-3.866-8.635-8.635-8.635H410.721
			c-4.769,0-8.635,3.866-8.635,8.635l0,0C402.085,677.823,405.952,681.689,410.721,681.689z"/>
		<path fill="#B5B5B5" d="M542.933,664.418H410.721c0,0,22.333-25.609,69.382-24.418S542.933,664.418,542.933,664.418z"/>
		<path fill="#C6C6C6" d="M435.591,979.175l9.02,0.504c2.545,0.142,4.723-1.805,4.865-4.35l16.36-292.854
			c0.142-2.545-1.805-4.723-4.35-4.865l-9.02-0.504c-2.545-0.142-4.723,1.805-4.865,4.35l-16.36,292.854
			C431.098,976.855,433.046,979.033,435.591,979.175z"/>
		<path fill="#C6C6C6" d="M392.072,944.145l7.303,0.874c2.53,0.303,4.827-1.503,5.13-4.034l31.532-263.606
			c0.303-2.531-1.503-4.827-4.034-5.13l-7.303-0.874c-2.53-0.303-4.827,1.503-5.13,4.034l-31.532,263.606
			C387.736,941.545,389.542,943.842,392.072,944.145z"/>
		<path fill="#C6C6C6" d="M551.027,965.759l8.69-0.774c2.539-0.226,4.413-2.467,4.187-5.006l-25.143-282.356
			c-0.226-2.538-2.467-4.413-5.006-4.187l-8.69,0.774c-2.538,0.226-4.413,2.467-4.187,5.006l25.143,282.356
			C546.247,964.111,548.488,965.985,551.027,965.759z"/>
		<path fill="#C6C6C6" d="M493.244,940.044l7.352-0.208c2.548-0.072,4.554-2.196,4.482-4.743l-7.515-265.379
			c-0.072-2.547-2.196-4.554-4.743-4.482l-7.352,0.208c-2.547,0.072-4.554,2.196-4.482,4.743l7.515,265.379
			C488.573,938.11,490.697,940.116,493.244,940.044z"/>
		<path fill="#2B2D31" d="M594.448,649.53c-7.203-24.312-26.425-63.206-44.648-81.458c-2.214-2.743-4.491-5.223-6.768-7.279
			c-2.313-2.089-4.303-4.641-6.008-7.484c-1.815,1.664-3.823,3.265-5.959,4.817c-2.036,0.362-3.798,1.61-5.306,3.565
			c-25.463,15.878-65.248,25.209-80.802,28.418c2.679,18.77,5.619,38.766,11.125,46.915c7.756,11.479,51.145,11.564,69.746,11.053
			c12.535,41.556,44.21,123.441,55.518,131.879c13.301,9.926,40.795,14.293,43.177-0.596
			C626.905,764.471,603.977,681.689,594.448,649.53z"/>
		<path fill="#2B2D31" d="M661.143,917.148c-2.581-8.536-9.077-27.081-12.897-39.92c-12.04-40.465-18.75-75.359-23.028-98.861
			c-4.278-23.502-26.107-43.524-34.145-43.674c-14.645-0.272-7.13,19.589-13.896,37.321c-6.766,17.732,7.732,57.971,24.213,92.13
			c7.489,15.521,15.225,38.643,22.631,53.004C629.901,918.509,652.48,921.108,661.143,917.148z"/>
		<path fill="#1F2123" d="M463.818,609.249c18.967-25.555,147.504-2.797,171.326,7.923c17.383,7.822,18.263,32.954,4.367,44.071
			C625.615,672.359,397.513,698.581,463.818,609.249z"/>
		<path fill="#161819" d="M578.368,750.972c0,0,0.303,17.234-8.035,18.028s-18.618,2.883-21,14s8.389,11.248,5.61,27.13
			c-2.779,15.881-3.97,23.822,2.382,32.557S584.25,863.716,591,861.333s2.058-16.662-0.324-26.588s10.323-59.555,10.323-59.555
			L578.368,750.972z"/>
		<path fill="#FFB27D" d="M600.794,472.57c3.97,9.529-34.294,111.43-51.013,92.987c-11.126-12.274-3.381-35.02,0.987-41.77
			c4.367-6.75,33.555-47.166,37.526-57.886C592.264,455.182,600.794,472.57,600.794,472.57z"/>
		<path fill="#FFB27D" d="M588.294,469.674c2.184-9.33,20.05-27.395,20.05-27.395s2.374-0.928,4.764-0.854l0.248-0.188l0.371,0.228
			c1.423,0.158,2.768,0.752,3.548,2.179l6.503,3.995c0,0-4.353,5.12-5.933,6.574c-0.058,0.465-0.123,0.924-0.195,1.379
			c0.818,1.006,2.853,2.171,2.853,2.171s-1.638,4.318-5.062,6.104c-0.147,0.077-0.283,0.162-0.427,0.242
			c-0.04,0.066-0.079,0.143-0.119,0.205c-2.184,3.375-2.581,7.345-4.367,8.933c-1.787,1.588-13.301,11.712-17.072,13.896
			C589.684,489.327,586.11,479.004,588.294,469.674z"/>
		<path fill="#FFB27D" d="M621.397,443.469c0,0,1.638-17.569-1.191-19.355s-5.062,0.447-4.913,4.02s-1.042,13.251,0,14.74
			C616.334,444.363,621.397,443.469,621.397,443.469z"/>
		<path fill="#FFB27D" d="M591.867,469.872c0,0,3.97-5.558,1.985-16.08c-1.985-10.521-6.551-18.909-9.529-15.534
			c-2.978,3.375,1.241,7.246,0.447,11.018s-1.439,17.618,0.149,21.787s7.345,8.338,8.139,5.956
			C593.852,474.637,591.867,469.872,591.867,469.872z"/>
		<path fill="#E89B67" d="M590,440.625c-1-1.333-5.542-4.5-4.875-1s-0.333,24.375,1,27.375s3.875,3.833,6.375,2.5
			c0,0,4.917,7.042,11.75,4.875s16.917-20.042,14.917-29.542s2.917-18.333-1.417-20.333S590,440.625,590,440.625z"/>
		<g>
			<path fill="#FCC000" d="M617.841,411.48H586.63l2.75,48.431h0.021c0.225,0.764,5.823,1.375,12.714,1.375
				c6.891,0,12.489-0.612,12.714-1.375h0.021L617.841,411.48z"/>
			<path fill="#F49C00" d="M610.722,411.48l-2.687,43.529h-0.021c-0.225,0.764-5.823,1.375-12.714,1.375
				c-2.225,0-4.311-0.065-6.13-0.177l0.21,3.704h0.021c0.225,0.764,5.823,1.375,12.714,1.375c6.891,0,12.489-0.612,12.714-1.375
				h0.021l2.99-48.431H610.722z"/>
			<ellipse fill="#3A3A3A" cx="602.026" cy="411.48" rx="16.293" ry="1.734"/>
			<path fill="#3A3A3A" d="M585.733,411.48v-2.332h32.587v2.332C618.32,411.48,585.733,411.3,585.733,411.48z"/>
			<ellipse fill="#444444" cx="602.026" cy="409.088" rx="16.293" ry="1.734"/>
			<ellipse fill="#3A3A3A" cx="602.232" cy="408.787" rx="12.38" ry="1.318"/>
			<path fill="#3A3A3A" d="M589.852,408.787v-1.772h24.761v1.772C614.612,408.787,589.852,408.651,589.852,408.787z"/>
			<ellipse fill="#444444" cx="602.232" cy="406.97" rx="12.38" ry="1.318"/>
			<ellipse fill="#3A3A3A" cx="610.487" cy="406.637" rx="1.256" ry="0.419"/>
		</g>
		<path fill="#FCC000" d="M444.5,643c5.578-14.32,35-41,72-42c43.057-1.164,51.5,1,62,2.5c-5.128-9.513-25.013-35.782-29.32-43.88
			c-9.926-18.661-13.499-24.616-16.278-41.291c-1.894-11.364,4.169-60.945,0.596-71.267c-3.573-10.323-42.284-12.11-47.445-18.462
			c-1.064-1.31-3.017-3.302-3.259-5.602c-16.893,3.906-28.464,1.552-35.269-1.195c-1.383,3.171-3.766,4.12-6.535,5.01
			c-11.117,3.573-44.269,9.727-45.063,20.05c-0.794,10.323,33.351,95.685,40.1,110.772C442.327,571.721,436.21,624.828,444.5,643z"
			/>
		<path fill="#FFB27D" d="M624.523,444.512c0,0-10.124-8.635-13.698-7.444c-4.118,1.373-2.084,4.467,0.744,6.7
			c2.829,2.233,8.338,6.849,10.72,6.104C624.672,449.127,626.012,446.447,624.523,444.512z"/>
		<path fill="#FFB27D" d="M606.458,446.745c1.898-1.241,14.789,4.467,14.492,8.635c-0.361,5.049-2.084,4.467-4.913,3.276
			S601.297,450.12,606.458,446.745z"/>
		<path fill="#E89B67" d="M409.728,491.213c0,0,4.864,13.797,0.496,19.752c-4.367,5.956-6.948,9.727-6.948,10.521
			s-12.711-23.208-14.101-29.164c-1.39-5.955-1.781-9.944,0.602-12.723c2.382-2.779,13.896,9.727,15.881,11.911
			S409.728,491.213,409.728,491.213z"/>
		<path fill="#FFB27D" d="M602.984,460.145c2.697,1.708,9.827,3.97,11.117,6.402c1.898,3.578,0.149,6.104-2.531,6.104
			c-2.68,0-14.839-7.841-14.889-11.762C596.65,458.434,600.006,458.259,602.984,460.145z"/>
		<path fill="#FFB27D" d="M407.836,505.822c4.367,9.529,9.132,29.579,13.102,36.329s4.175,23.407-1.384,29.759
			c-5.558,6.353-21.44-1.588-25.013-19.058c-3.573-17.469-5.167-58.743-0.006-59.934S407.836,505.822,407.836,505.822z"/>
		<path fill="#FFB27D" d="M397.916,500.642c4.764-1.39,23.673-8.933,27.594-5.757c2.947,2.387-1.588,4.566-7.544,6.75
			c-5.955,2.184-23.425,11.117-24.219,2.978C392.954,496.473,397.916,500.642,397.916,500.642z"/>
		<g>
			<path fill="#444444" d="M424.187,495.377c0.561-0.603,0.804-1.493,0.462-2.359l-18.604-47.024
				c-0.517-1.306-1.782-2.162-3.187-2.156l-20.682,0.094c-0.529,0.002-0.981,0.229-1.306,0.57l-0.004-0.002l-1.39,1.324l0.894,0.136
				c0.019,0.17,0.056,0.342,0.128,0.511l19.347,45.988c0.561,1.334,1.826,2.237,3.27,2.335l19.171,1.297l0.448,0.699l1.263-1.209
				c0.002-0.001,0.003-0.003,0.005-0.004l0.189-0.181L424.187,495.377z"/>
			<path fill="#3A3A3A" d="M401.637,496.213l19.284,1.305c1.654,0.112,2.859-1.539,2.249-3.08l-18.604-47.024
				c-0.517-1.306-1.782-2.162-3.187-2.156l-20.682,0.094c-1.305,0.006-2.184,1.336-1.678,2.539l19.347,45.988
				C398.928,495.212,400.193,496.115,401.637,496.213z"/>
			
				<ellipse transform="matrix(0.8866 -0.4625 0.4625 0.8866 -170.0692 236.4814)" fill="#2B2D31" cx="397.265" cy="465.094" rx="4.02" ry="6.467"/>
		</g>
		<path fill="#FFB27D" d="M413.333,481.667c4.333-2.667,5.884-2.415,7.253-0.727c0.881,1.087,0.867,2.406-1.031,4.416
			c-3.375,3.573-23.028,18.859-26.998,16.874c-3.97-1.985-3.176-7.742-0.993-9.529C393.305,491.277,407.408,485.313,413.333,481.667
			z"/>
		<path fill="#FFB27D" d="M409.629,470.071c3.823,0.294,2.704,3.929,0.038,8.263c-1.876,3.048-15.721,17.346-18.897,17.545
			c-3.176,0.199-6.353-1.985-4.169-5.558S407.048,469.872,409.629,470.071z"/>
		<path fill="#EE9600" d="M480.642,328.467c0,0,3.424-12.06,17.718,8.04L480.642,328.467z"/>
		<path fill="#FFB27D" d="M395.733,462.527c2.623-0.874,3.573,2.779,2.184,5.558s-4.963,5.956-4.963,7.147s2.184,5.955,2.581,9.132
			s-3.573,8.338-6.551,6.948c-2.978-1.39-4.169-13.301-3.176-18.264S395.137,462.726,395.733,462.527z"/>
		<path fill="#C6C6C6" d="M476.622,827.648c-40.127,0-72.657,5.944-72.657,13.276s32.53,13.276,72.657,13.276
			s72.657-5.944,72.657-13.276S516.75,827.648,476.622,827.648z M475.729,847.767c-30.918,0-55.982-3.866-55.982-8.635
			c0-4.769,25.064-8.635,55.982-8.635s55.982,3.866,55.982,8.635C531.711,843.9,506.647,847.767,475.729,847.767z"/>
		
			<ellipse transform="matrix(0.866 -0.5 0.5 0.866 -127.8301 302.1519)" fill="#FFB27D" cx="499.908" cy="389.61" rx="12.01" ry="8.635"/>
		<path fill="#D89261" d="M508.742,387.129c0,0-9.33-2.779-13.698,4.566C495.044,391.695,500.801,377.203,508.742,387.129z"/>
		<path fill="#D89261" d="M443.344,386.222c-0.3,3.055,1.775,5.952,5.734,6.341c3.959,0.389,8.303-1.876,8.603-4.931
			c0.3-3.055-5.175,0.103-9.134-0.287C444.588,386.956,443.644,383.167,443.344,386.222z"/>
		
			<ellipse transform="matrix(0.9899 -0.142 0.142 0.9899 -50.8581 68.1776)" fill="#9E6B49" cx="452.428" cy="390.553" rx="2.084" ry="0.893"/>
		<path d="M475.274,377.568c-10.811,0-13.671-3.727-13.979-4.18c-0.388-0.571-0.239-1.349,0.333-1.736
			c0.563-0.382,1.327-0.243,1.721,0.31c0.088,0.112,2.968,3.587,14.257,3.049c0.707-0.039,1.275,0.499,1.308,1.189
			c0.033,0.689-0.5,1.275-1.189,1.308C476.865,377.549,476.049,377.568,475.274,377.568z"/>
		<path d="M469.476,376.905c0,1.288-1.222,2.333-2.73,2.333s-2.73-1.044-2.73-2.333s0.676-2.233,2.184-2.233
			C467.708,374.672,469.476,375.617,469.476,376.905z"/>
		<ellipse fill="#FFFFFF" cx="469.029" cy="378.196" rx="1.241" ry="0.546"/>
		<path d="M482.243,368.097c-0.62,2.26-4.646,0.809-9.721-0.583s-9.277-2.2-8.657-4.46c0.62-2.26,5.237-2.963,10.312-1.57
			C479.251,362.876,482.863,365.837,482.243,368.097z"/>
		<path d="M451.499,372.438c-8.945,0-11.497-4.507-11.609-4.714c-0.329-0.607-0.103-1.366,0.504-1.694
			c0.602-0.325,1.354-0.106,1.687,0.49c0.114,0.193,2.493,4.042,11.516,3.333c0.691-0.05,1.29,0.46,1.344,1.148
			c0.054,0.688-0.46,1.29-1.148,1.344C452.984,372.408,452.221,372.438,451.499,372.438z"/>
		<path d="M447.738,371.545c0,1.288-1.222,2.333-2.73,2.333c-1.508,0-2.73-1.044-2.73-2.333c0-1.288,0.676-2.233,2.184-2.233
			C445.97,369.312,447.738,370.257,447.738,371.545z"/>
		<ellipse fill="#FFFFFF" cx="447.291" cy="372.836" rx="1.241" ry="0.546"/>
		<path d="M455.094,361.063c-0.62,2.26-3.368,0.031-7.058-0.982c-3.69-1.013-6.926-0.425-6.306-2.685
			c0.62-2.26,4.115-3.271,7.805-2.258C453.225,356.15,455.714,358.803,455.094,361.063z"/>
		<path d="M450.229,403.427c-2.044,0-3.836-0.373-5.365-1.12c-3.028-1.479-3.841-3.924-3.875-4.027
			c-0.21-0.657,0.151-1.361,0.809-1.572c0.649-0.209,1.351,0.146,1.567,0.796c0.031,0.088,0.599,1.615,2.676,2.596
			c2.012,0.951,5.862,1.549,12.779-0.993c0.646-0.238,1.366,0.094,1.604,0.742c0.238,0.648-0.094,1.366-0.742,1.604
			C456.104,402.769,452.943,403.427,450.229,403.427z"/>
		<path d="M491.015,333.083c0,0-12.705,18.264-27.395,20.844c-14.69,2.581-23.822,1.787-27.197,12.11
			c-3.375,10.323-4.367,22.631-4.367,22.631s-5.558-22.829,1.985-38.115C441.584,335.266,462.428,312.238,491.015,333.083z"/>
		<path d="M477.913,340.031c0,0-2.184,13.698,8.933,19.455c11.117,5.757,6.551,17.867,3.573,25.41
			c-2.978,7.544-3.176,11.712-3.176,11.712s20.249-13.301,22.829-26.403c2.581-13.102-8.933-39.505-22.234-36.726
			C474.538,336.259,477.913,340.031,477.913,340.031z"/>
		<path fill="#1F2123" d="M643.084,627.097c-12.308-7.941-29.38,11.117-44.468,22.631c-15.087,11.514-21.44,48.438-25.41,86.156
			c-1.227,11.659-6.347,21.718-6.54,32.782c3.69,7.563,18.726,33.522,30.554,37.114c1.748-6.736,3.573-17.271,7.147-27.991
			c12.51-37.53,31.967-85.976,40.702-108.21C653.804,647.346,649.84,631.456,643.084,627.097z"/>
		<path fill="#161819" d="M585.31,671.186c0,0,15.484-2.382,17.469-7.544C602.78,663.642,599.206,676.745,585.31,671.186z"/>
	</g>
	<path fill="#F49C00" d="M366.497,442.313c-0.364,0-0.732-0.08-1.081-0.25c-1.23-0.598-1.752-2.066-1.164-3.3
		c0.232-0.489,5.924-11.974,23.823-11.418c1.375,0.042,2.456,1.189,2.414,2.564c-0.042,1.375-1.231,2.468-2.564,2.414
		c-14.543-0.427-19.001,8.23-19.185,8.6C368.304,441.8,367.417,442.313,366.497,442.313z"/>
	<path fill="#F49C00" d="M356.999,437.324c-0.343,0-0.691-0.071-1.023-0.221c-1.253-0.566-1.811-2.041-1.245-3.294
		c0.313-0.694,7.982-16.974,35.816-16.465c1.375,0.026,2.469,1.162,2.443,2.537c-0.026,1.375-1.194,2.445-2.537,2.443
		c-24.608-0.481-31.121,13.395-31.184,13.535C358.854,436.779,357.947,437.324,356.999,437.324z"/>
	<path fill="#F49C00" d="M346.165,433.324c-0.349,0-0.704-0.074-1.042-0.23c-1.249-0.576-1.793-2.056-1.217-3.304
		c0.127-0.276,13.179-27.592,50.536-23.431c1.367,0.152,2.352,1.383,2.2,2.75c-0.151,1.367-1.38,2.356-2.75,2.2
		c-33.828-3.758-45.352,20.325-45.464,20.569C348.007,432.788,347.106,433.324,346.165,433.324z"/>
</g>
</svg>
